<?xml version="1.0" encoding="iso-8859-1"?>
<!-- Generator: Adobe Illustrator 19.0.0, SVG Export Plug-In . SVG Version: 6.00 Build 0)  -->
<svg version="1.1" id="Layer_1" xmlns="http://www.w3.org/2000/svg" xmlns:xlink="http://www.w3.org/1999/xlink" x="0px" y="0px"
	 viewBox="0 0 512.034 512.034" style="enable-background:new 0 0 512.034 512.034;" xml:space="preserve">
<g transform="translate(0 -1)">
	<g>
		<g>
			<path d="M298.684,406.367H213.35c-11.782,0-21.333,9.551-21.333,21.333s9.551,21.333,21.333,21.333h85.333
				c11.782,0,21.333-9.551,21.333-21.333S310.466,406.367,298.684,406.367z"/>
			<path d="M487.638,242.208c-0.098-0.632-0.225-1.259-0.378-1.878c3.704-20.332,3.518-42.9-0.294-67.246
				c-4.94-31.551-15.684-64.749-30.477-98.327c-7.185-16.309-14.872-31.663-22.57-45.64c-4.656-8.454-8.324-14.637-10.512-18.112
				c-11.399-18.108-39.387-10.031-39.387,11.366c0,20.728-1.781,39.371-5.058,56.136C342.446,55.973,300.152,43.7,256.017,43.7
				c-44.135,0-86.43,12.273-122.944,34.806c-3.277-16.764-5.058-35.408-5.058-56.135c0-21.397-27.987-29.473-39.387-11.366
				c-2.188,3.475-5.856,9.658-10.512,18.112c-7.698,13.977-15.386,29.331-22.57,45.64c-14.792,33.577-25.537,66.775-30.477,98.327
				c-3.812,24.346-3.999,46.914-0.294,67.246c-0.154,0.619-0.28,1.245-0.378,1.878c-2.001,12.928-3.046,24.592-3.046,36.159
				c0,129.606,105.061,234.667,234.667,234.667s234.667-105.061,234.667-234.667C490.684,266.801,489.639,255.136,487.638,242.208z
				 M444.812,179.685c3.261,20.827,3.419,39.197,0.107,55.075c-0.327,0.871-0.619,1.771-0.845,2.72
				c-3.87,16.253-11.367,29.798-23.207,40.611c-0.281,0.255-0.566,0.508-0.851,0.76c-0.267,0.237-0.538,0.472-0.809,0.706
				c-7.106,6.1-15.629,11.278-25.653,15.523c-0.215,0.091-0.431,0.181-0.648,0.271c-0.62,0.258-1.243,0.515-1.875,0.766
				c-0.599,0.238-1.205,0.471-1.815,0.702c-0.492,0.188-0.987,0.373-1.486,0.557c-0.786,0.288-1.577,0.573-2.38,0.851
				c-0.257,0.089-0.518,0.177-0.777,0.265c-0.899,0.306-1.807,0.607-2.728,0.9c-0.13,0.041-0.258,0.083-0.388,0.125
				c-1.12,0.353-2.253,0.699-3.405,1.035c-4.756,1.386-19.052,5.025-39.416,10.066c-0.683,0.169-0.683,0.169-1.367,0.338
				c-5.561,1.376-11.356,2.802-17.248,4.247V237.07c0-5.169,2.601-9.736,6.654-11.989c43.612-24.232,77.68-66.389,92.272-129.677
				C431.583,124.667,440.679,153.286,444.812,179.685z M256.017,86.367c39.649,0,77.417,12.065,109.152,34.078
				c-14.496,32.409-35.701,54.077-59.412,67.35c-17.692,9.894-28.407,28.884-28.407,49.25v92.138l-21.333,10.667l-21.333-10.667
				v-92.138c0-20.366-10.714-39.356-28.414-49.254c-23.704-13.268-44.908-34.936-59.404-67.345
				C178.6,98.432,216.368,86.367,256.017,86.367z M67.222,179.685c4.133-26.398,13.229-55.018,25.867-84.28
				c14.592,63.287,48.66,105.444,92.277,129.679c4.048,2.251,6.649,6.818,6.649,11.987v78.133
				c-5.892-1.445-11.687-2.871-17.248-4.247c-0.684-0.169-0.684-0.169-1.367-0.338c-20.364-5.041-34.66-8.68-39.413-10.065
				c-1.153-0.336-2.288-0.682-3.409-1.036c-0.127-0.04-0.252-0.081-0.378-0.121c-0.928-0.296-1.842-0.599-2.747-0.906
				c-0.253-0.086-0.507-0.172-0.759-0.259c-0.813-0.281-1.613-0.57-2.408-0.861c-0.46-0.169-0.917-0.34-1.372-0.513
				c-0.644-0.244-1.285-0.491-1.917-0.742c-0.621-0.247-1.234-0.5-1.844-0.754c-0.23-0.095-0.459-0.191-0.687-0.287
				c-10.01-4.241-18.523-9.412-25.623-15.504c-0.283-0.244-0.566-0.489-0.844-0.737c-0.277-0.244-0.552-0.489-0.824-0.736
				c-11.845-10.815-19.344-24.362-23.215-40.618c-0.226-0.949-0.518-1.849-0.845-2.72C63.803,218.881,63.961,200.511,67.222,179.685
				z M67.339,314.101c14.521,11.734,32.68,20.998,54.706,27.418c1.425,0.415,3.432,0.965,5.972,1.638v78.308
				C97.175,393.86,75.307,356.437,67.339,314.101z M170.684,450.406V353.9c7.763,1.914,15.853,3.897,23.949,5.872
				c4.675,1.141,8.557,2.085,11.357,2.766l40.487,20.243c6.006,3.003,13.075,3.003,19.081,0l40.487-20.243
				c2.801-0.68,6.682-1.625,11.357-2.766c8.096-1.976,16.186-3.959,23.949-5.872v96.505c-25.706,12.775-54.679,19.962-85.333,19.962
				S196.39,463.18,170.684,450.406z M384.017,421.466v-78.308c2.539-0.673,4.546-1.223,5.972-1.638
				c22.026-6.42,40.185-15.684,54.706-27.419C436.726,356.437,414.858,393.86,384.017,421.466z"/>
		</g>
	</g>
</g>
<g>
</g>
<g>
</g>
<g>
</g>
<g>
</g>
<g>
</g>
<g>
</g>
<g>
</g>
<g>
</g>
<g>
</g>
<g>
</g>
<g>
</g>
<g>
</g>
<g>
</g>
<g>
</g>
<g>
</g>
</svg>
